<svg width="257" height="257" viewBox="0 0 257 257" fill="none" xmlns="http://www.w3.org/2000/svg">
<path d="M15.1967 2L241.197 2.18599C248.376 2.1919 254.192 8.01699 254.186 15.1967L254 241.197C253.994 248.376 248.169 254.192 240.989 254.186L14.9893 254C7.8096 253.994 1.9941 248.169 2 240.989L2.18599 14.9893C2.1919 7.8096 8.01699 1.9941 15.1967 2Z" fill="white" stroke="black" stroke-width="4"/>
<path d="M197 169C197 180.046 188.046 189 177 189C165.954 189 157 180.046 157 169C157 157.954 165.954 149 177 149C188.046 149 197 157.954 197 169Z" fill="black"/>
<path d="M148 88C148 99.0457 139.046 108 128 108C116.954 108 108 99.0457 108 88C108 76.9543 116.954 68 128 68C139.046 68 148 76.9543 148 88Z" fill="black"/>
<path d="M148 169C148 180.046 139.046 189 128 189C116.954 189 108 180.046 108 169C108 157.954 116.954 149 128 149C139.046 149 148 157.954 148 169Z" fill="black"/>
<path d="M197 88C197 99.0457 188.046 108 177 108C165.954 108 157 99.0457 157 88C157 76.9543 165.954 68 177 68C188.046 68 197 76.9543 197 88Z" fill="black"/>
<path d="M99 169C99 180.046 90.0457 189 79 189C67.9543 189 59 180.046 59 169C59 157.954 67.9543 149 79 149C90.0457 149 99 157.954 99 169Z" fill="black"/>
<path d="M99 88C99 99.0457 90.0457 108 79 108C67.9543 108 59 99.0457 59 88C59 76.9543 67.9543 68 79 68C90.0457 68 99 76.9543 99 88Z" fill="black"/>
</svg>
