<svg width="257" height="257" viewBox="0 0 257 257" fill="none" xmlns="http://www.w3.org/2000/svg">
<path d="M15.1967 2L241.197 2.18599C248.376 2.1919 254.192 8.01699 254.186 15.1967L254 241.197C253.994 248.376 248.169 254.192 240.989 254.186L14.9893 254C7.8096 253.994 1.9941 248.169 2 240.989L2.18599 14.9893C2.1919 7.8096 8.01699 1.9941 15.1967 2Z" fill="white" stroke="black" stroke-width="4"/>
<path d="M177 159C177 170.046 168.046 179 157 179C145.954 179 137 170.046 137 159C137 147.954 145.954 139 157 139C168.046 139 177 147.954 177 159Z" fill="black"/>
<path d="M177 98C177 109.046 168.046 118 157 118C145.954 118 137 109.046 137 98C137 86.9543 145.954 78 157 78C168.046 78 177 86.9543 177 98Z" fill="black"/>
<path d="M119 159C119 170.046 110.046 179 99 179C87.9543 179 79 170.046 79 159C79 147.954 87.9543 139 99 139C110.046 139 119 147.954 119 159Z" fill="black"/>
<path d="M119 98C119 109.046 110.046 118 99 118C87.9543 118 79 109.046 79 98C79 86.9543 87.9543 78 99 78C110.046 78 119 86.9543 119 98Z" fill="black"/>
</svg>
