<svg width="257" height="257" viewBox="0 0 257 257" fill="none" xmlns="http://www.w3.org/2000/svg">
<path d="M15.1967 2L241.197 2.18599C248.376 2.1919 254.192 8.01699 254.186 15.1967L254 241.197C253.994 248.376 248.169 254.192 240.989 254.186L14.9893 254C7.8096 253.994 1.9941 248.169 2 240.989L2.18599 14.9893C2.1919 7.8096 8.01699 1.9941 15.1967 2Z" fill="white" stroke="black" stroke-width="4"/>
<path d="M197 179C197 190.046 188.046 199 177 199C165.954 199 157 190.046 157 179C157 167.954 165.954 159 177 159C188.046 159 197 167.954 197 179Z" fill="black"/>
<path d="M148 128C148 139.046 139.046 148 128 148C116.954 148 108 139.046 108 128C108 116.954 116.954 108 128 108C139.046 108 148 116.954 148 128Z" fill="black"/>
<path d="M197 78C197 89.0457 188.046 98 177 98C165.954 98 157 89.0457 157 78C157 66.9543 165.954 58 177 58C188.046 58 197 66.9543 197 78Z" fill="black"/>
<path d="M99 179C99 190.046 90.0457 199 79 199C67.9543 199 59 190.046 59 179C59 167.954 67.9543 159 79 159C90.0457 159 99 167.954 99 179Z" fill="black"/>
<path d="M99 78C99 89.0457 90.0457 98 79 98C67.9543 98 59 89.0457 59 78C59 66.9543 67.9543 58 79 58C90.0457 58 99 66.9543 99 78Z" fill="black"/>
</svg>
